<?xml version="1.0" encoding="utf-8"?>
<!-- Generator: Adobe Illustrator 18.1.1, SVG Export Plug-In . SVG Version: 6.00 Build 0)  -->
<svg version="1.1" id="Layer_1" xmlns="http://www.w3.org/2000/svg" xmlns:xlink="http://www.w3.org/1999/xlink" x="0px" y="0px"
	 viewBox="0 0 796 1130" enable-background="new 0 0 796 1130" xml:space="preserve">
<g>
	<path fill="#AD1F3A" d="M743,319.178c-27.825,13.417-55.807,26.504-83.629,39.926c-13.977,6.743-27.916,13.567-41.776,20.548
		c-32.459,16.351-61.679,38.118-91.573,58.874c-13.363,9.278-26.726,18.556-40.088,27.833c-0.21,0.146-2.9,2.27-3.087,2.143
		c-6.043-4.049-13.319-6.408-21.143-6.408c-21.021,0-38.054,17.033-38.054,38.054c0,0.243,0,0.502,0.015,0.746l-147.879,59.517
		c-6.971-8.007-17.246-13.075-28.708-13.075c-21.021,0-38.054,17.033-38.054,38.054s17.033,38.054,38.054,38.054
		s38.054-17.033,38.054-38.054c0-0.274,0-0.548-0.015-0.822l147.833-59.502c1.005,1.157,2.07,1.757,3.212,2.777L387.177,662h-0.061
		c-21.021,0-38.054,17.544-38.054,38.565c0,18.753,13.547,34.58,31.387,37.716l24.415,141.157
		c-11.507,6.53-19.271,18.969-19.271,33.156c0,21.021,17.033,38.086,38.054,38.086s38.054-17.017,38.054-38.038
		c0-18.723-13.502-34.271-31.311-37.438l-24.415-141.086c11.462-6.545,19.194-18.888,19.194-33.044
		c0-11.736-5.312-22.223-13.654-29.209l48.603-133.692c0.533,0.015,1.05,0.031,1.583,0.031c4.734,0,9.285-0.868,13.471-2.466
		l95.958,104.954c-2.816,5.297-4.399,11.355-4.399,17.764c0,21.021,17.033,38.054,38.054,38.054
		c21.021,0,38.054-17.033,38.054-38.054s-17.033-38.054-38.054-38.054c-5.13,0-10.031,1.02-14.506,2.862l-37.537-41.053l-0.67-0.731
		l-57.234-62.607c3.136-5.526,4.917-11.919,4.917-18.723c0-3.76-0.548-7.383-1.568-10.807c8.249-5.673,16.498-11.346,24.747-17.018
		c17.633-12.126,35.79-24.561,53.956-36.308c18.489-11.955,38.096-21.943,57.378-32.54c5.784-3.181,9.361-2.816,13.7,2.633
		c68.634,86.14,99.154,182.371,73.597,291.663c-25.801,110.297-74.404,210.151-145.383,298.681
		c-19.544,24.385-42.179,45.756-68.62,62.82c-53.596,34.614-106.947,34.964-160.269-0.685
		c-43.26-28.921-80.112-64.966-114.65-103.477c-48.283-53.824-92.259-110.89-126.051-175.08
		c-22.117-41.997-37.187-86.688-46.837-133.22c-6.515-31.448,0.472-60.552,13.106-89.154c22.574-51.099,56.899-93.34,96.536-132.033
		c77.539-75.698,170.118-126.173,270.52-163.938c74.039-27.856,149.797-49.486,227.763-62.987
		c11.416-1.979,23.426-2.009,34.979-0.944c5.465,0.502,12.116,4.536,15.465,9.026c17.688,23.807,31.57,49.76,40.109,78.316
		C763.503,302.693,759.256,311.339,743,319.178z"/>
	<path fill="#AD1F3A" d="M587.662,197.313c-129.704,27.764-252.711,65.849-360.07,143.83c-18.54-40.292-17.398-79.701,2.694-117.953
		c15.937-30.352,38.1-55.148,70.674-69.015c2.846-1.203,6.424-5.19,6.393-7.854c-0.122-18.753-1.081-37.507-1.842-56.26
		c-0.061-1.34-0.624-2.664-1.05-3.958c-4.567-13.684-4.216-15.754,9.468-21.782c11.158-4.917,22.939-8.6,34.69-11.949
		c6.256-1.781,10.168,0.441,13.228,7.915c8.783,21.371,15.724,43.032,18.997,65.91c0.228,1.598,2.253,2.953,3.44,4.414
		c1.4-1.614,3.836-3.105,4.064-4.871c3.942-30.565,7.504-61.191,11.584-91.741c0.365-2.649,3.547-6.53,5.997-7.063
		c17.429-3.714,34.766-2.542,51.525,3.547c2.298,0.837,4.841,4.704,4.962,7.276c1.187,25.055,1.827,50.155,2.71,75.226
		c0.228,6.439,0.807,12.862,1.233,19.286c0.807,0.198,1.613,0.396,2.42,0.593c0.974-2.085,2.085-4.11,2.892-6.256
		c9.696-25.74,22.422-49.76,40.261-70.872c2.847-3.364,5.525-9.727,8.265-9.712c5.571,0.015,11.812,2.436,16.546,5.678
		c9.864,6.743,19.21,14.339,28.175,22.239c4.886,4.293,4.445,8.326,0.593,15.222c-8.554,15.283-15.176,31.966-20.245,48.786
		c-6.256,20.777-5.038,20.823,12.254,33.944C567.432,179.397,576.581,187.906,587.662,197.313z"/>
	<path fill="#AD1F3A" d="M256.803,154.677c-0.244,4.186-4.551,8.965-8.22,11.995c-22.65,18.738-41.281,40.52-52.972,67.737
		c-14.537,33.853-17.155,68.604-6.865,104.071c2.101,7.276,5.48,14.171,8.798,22.604c-58.147,46.32-111.225,97.708-146.296,167.149
		c-6.515-16.866-9.087-32.559-9.727-48.588c-1.629-41.388,9.179-80.599,21.752-119.414c14.552-44.904,30.154-89.488,43.854-134.651
		c10.686-35.193,15.587-71.497,12.771-108.439c-0.578-7.489,2.283-12.756,8.844-14.765c12.954-3.958,26.09-7.87,39.439-10.001
		c25.283-4.064,50.612-2.314,75.819,1.994c8.555,1.477,13.045,5.267,12.908,14.491C256.666,124.143,257.67,139.456,256.803,154.677z
		"/>
</g>
</svg>
