<?xml version="1.0" encoding="utf-8"?>
<!-- Generator: Adobe Illustrator 18.1.1, SVG Export Plug-In . SVG Version: 6.00 Build 0)  -->
<svg version="1.1" id="Layer_1" xmlns="http://www.w3.org/2000/svg" xmlns:xlink="http://www.w3.org/1999/xlink" x="0px" y="0px"
	 viewBox="0 0 2895.29 1101.11" enable-background="new 0 0 2895.29 1101.11" xml:space="preserve">
<g>
	<g>
		<path fill="#AD1F3A" d="M719.325,316.415c-27.825,13.417-55.807,26.504-83.629,39.926c-13.977,6.743-27.916,13.567-41.776,20.548
			c-32.459,16.351-61.679,38.118-91.573,58.874c-13.363,9.278-26.726,18.556-40.088,27.833c-0.21,0.146-2.9,2.27-3.087,2.143
			c-6.043-4.049-13.319-6.408-21.143-6.408c-21.021,0-38.054,17.033-38.054,38.054c0,0.243,0,0.502,0.015,0.746l-147.879,59.517
			c-6.971-8.007-17.246-13.075-28.708-13.075c-21.021,0-38.054,17.033-38.054,38.054s17.033,38.054,38.054,38.054
			s38.054-17.033,38.054-38.054c0-0.274,0-0.548-0.015-0.822l147.833-59.502c1.005,1.157,2.07,1.757,3.212,2.777l-48.983,134.156
			h-0.061c-21.021,0-38.054,17.544-38.054,38.565c0,18.753,13.547,34.58,31.387,37.716l24.415,141.157
			c-11.507,6.53-19.271,18.969-19.271,33.156c0,21.021,17.033,38.086,38.054,38.086s38.054-17.017,38.054-38.038
			c0-18.723-13.502-34.271-31.311-37.438l-24.415-141.086c11.462-6.545,19.194-18.888,19.194-33.044
			c0-11.736-5.312-22.223-13.654-29.209l48.603-133.692c0.533,0.015,1.05,0.031,1.583,0.031c4.734,0,9.285-0.867,13.471-2.466
			l95.958,104.954c-2.816,5.297-4.399,11.355-4.399,17.764c0,21.021,17.033,38.054,38.054,38.054
			c21.021,0,38.054-17.033,38.054-38.054s-17.033-38.054-38.054-38.054c-5.13,0-10.031,1.02-14.506,2.862l-37.537-41.053
			l-0.67-0.731l-57.234-62.607c3.136-5.525,4.917-11.919,4.917-18.723c0-3.76-0.548-7.383-1.568-10.807
			c8.249-5.673,16.498-11.346,24.747-17.018c17.633-12.126,35.79-24.561,53.956-36.308c18.489-11.955,38.096-21.943,57.378-32.54
			c5.784-3.181,9.361-2.816,13.7,2.633c68.634,86.14,99.154,182.371,73.597,291.663C672.092,805.306,623.489,905.16,552.51,993.69
			c-19.544,24.385-42.179,45.756-68.62,62.82c-53.596,34.614-106.947,34.964-160.269-0.685
			c-43.26-28.921-80.112-64.966-114.65-103.477c-48.283-53.824-92.259-110.89-126.051-175.08
			c-22.117-41.997-37.187-86.688-46.837-133.22c-6.515-31.448,0.472-60.552,13.106-89.154
			c22.574-51.099,56.899-93.34,96.536-132.033c77.539-75.698,170.118-126.173,270.52-163.938
			c74.039-27.856,149.797-49.486,227.763-62.987c11.416-1.979,23.426-2.009,34.979-0.944c5.465,0.502,12.116,4.536,15.465,9.026
			c17.688,23.807,31.57,49.76,40.109,78.316C739.828,299.93,735.582,308.576,719.325,316.415z"/>
		<path fill="#AD1F3A" d="M563.987,194.55c-129.704,27.764-252.711,65.849-360.07,143.83c-18.54-40.292-17.398-79.701,2.694-117.953
			c15.937-30.352,38.1-55.148,70.674-69.015c2.846-1.203,6.424-5.19,6.393-7.854c-0.122-18.753-1.081-37.507-1.842-56.26
			c-0.061-1.34-0.624-2.664-1.05-3.958c-4.567-13.684-4.216-15.754,9.468-21.782c11.158-4.917,22.939-8.6,34.69-11.949
			c6.256-1.781,10.168,0.441,13.228,7.915c8.783,21.371,15.724,43.032,18.997,65.91c0.228,1.598,2.253,2.953,3.44,4.414
			c1.4-1.614,3.836-3.105,4.064-4.871c3.942-30.565,7.504-61.191,11.583-91.741c0.365-2.649,3.547-6.53,5.997-7.063
			c17.429-3.714,34.766-2.542,51.525,3.547c2.298,0.837,4.841,4.704,4.962,7.276c1.187,25.055,1.827,50.155,2.71,75.226
			c0.228,6.439,0.807,12.862,1.233,19.286c0.807,0.198,1.613,0.396,2.42,0.593c0.974-2.085,2.085-4.11,2.892-6.256
			c9.696-25.74,22.422-49.76,40.261-70.872c2.847-3.364,5.525-9.727,8.265-9.712c5.571,0.015,11.812,2.436,16.546,5.678
			c9.864,6.743,19.21,14.339,28.175,22.239c4.886,4.293,4.445,8.326,0.594,15.222c-8.554,15.283-15.176,31.966-20.245,48.786
			c-6.256,20.777-5.038,20.823,12.254,33.944C543.758,176.634,552.906,185.143,563.987,194.55z"/>
		<path fill="#AD1F3A" d="M233.128,151.914c-0.244,4.186-4.551,8.965-8.22,11.995c-22.65,18.738-41.281,40.52-52.972,67.737
			c-14.537,33.853-17.155,68.604-6.865,104.071c2.101,7.276,5.48,14.171,8.798,22.604c-58.147,46.32-111.225,97.708-146.296,167.15
			c-6.515-16.866-9.087-32.559-9.727-48.588c-1.629-41.388,9.179-80.599,21.752-119.414c14.552-44.904,30.154-89.488,43.854-134.651
			c10.686-35.193,15.587-71.497,12.771-108.439c-0.578-7.489,2.283-12.756,8.844-14.765c12.954-3.958,26.09-7.87,39.439-10.001
			c25.283-4.064,50.612-2.314,75.819,1.994c8.555,1.477,13.045,5.267,12.908,14.491
			C232.991,121.379,233.996,136.692,233.128,151.914z"/>
	</g>
	<path fill="#666666" d="M950.216,444.719c-22.926-11.772-40.689-28.501-53.285-50.186c-12.605-21.686-18.897-46.566-18.897-74.661
		V159.397c0-28.085,6.292-52.762,18.897-74.042c12.596-21.269,30.359-37.795,53.285-49.567
		c22.924-11.772,49.256-17.658,78.997-17.658c29.741,0,55.967,5.682,78.689,17.039c22.711,11.366,40.37,27.368,52.975,48.018
		c12.594,20.659,18.897,44.611,18.897,71.872v0.62c0,2.071-0.62,3.718-1.858,4.957c-1.24,1.238-2.693,1.858-4.339,1.858
		l-47.088,2.478c-4.135,0-6.197-1.859-6.197-5.576v-1.859c0-26.43-8.266-47.708-24.782-63.818
		c-16.527-16.11-38.629-24.164-66.297-24.164c-27.679,0-49.876,8.054-66.605,24.164c-16.729,16.11-25.094,37.388-25.094,63.818
		v164.811c0,26.44,8.366,47.709,25.094,63.819c16.729,16.109,38.926,24.164,66.605,24.164c27.668,0,49.77-8.055,66.297-24.164
		c16.516-16.11,24.782-37.379,24.782-63.819v-1.239c0-3.717,2.062-5.576,6.197-5.576l47.088,2.478c4.124,0,6.197,2.072,6.197,6.196
		c0,27.262-6.303,51.329-18.897,72.182c-12.605,20.863-30.264,37.079-52.975,48.638c-22.722,11.568-48.948,17.348-78.689,17.348
		C999.472,462.377,973.14,456.491,950.216,444.719z"/>
	<path fill="#666666" d="M1518.07,451.844l-22.306-72.492c-0.416-1.239-1.238-1.858-2.478-1.858H1319.18
		c-1.238,0-2.071,0.619-2.478,1.858l-22.304,72.492c-1.24,3.311-3.719,4.957-7.435,4.957h-50.189c-4.549,0-6.195-2.266-4.955-6.815
		l135.689-421.942c1.24-3.301,3.719-4.956,7.435-4.956h61.961c3.717,0,6.195,1.654,7.433,4.956l136.931,421.942l0.618,2.478
		c0,2.894-1.858,4.337-5.575,4.337h-50.807C1521.786,456.801,1519.308,455.155,1518.07,451.844z M1332.502,329.475
		c0.62,0.619,1.336,0.929,2.168,0.929h142.506c0.822,0,1.548-0.31,2.168-0.929c0.62-0.62,0.715-1.337,0.31-2.169l-71.872-229.868
		c-0.416-0.823-1.036-1.239-1.86-1.239c-0.833,0-1.451,0.416-1.858,1.239l-71.872,229.868
		C1331.776,328.138,1331.882,328.855,1332.502,329.475z"/>
	<path fill="#666666" d="M1892.914,452.464l-86.743-185.258c-0.416-1.239-1.238-1.858-2.478-1.858h-89.221
		c-1.655,0-2.478,0.833-2.478,2.478v182.779c0,4.134-2.071,6.196-6.195,6.196h-47.09c-4.133,0-6.195-2.062-6.195-6.196V29.282
		c0-4.124,2.062-6.195,6.195-6.195h166.67c24.784,0,46.567,5.169,65.367,15.49c18.791,10.329,33.351,24.783,43.681,43.371
		c10.321,18.587,15.491,40.07,15.491,64.437c0,28.918-7.542,53.391-22.616,73.421c-15.083,20.04-36.042,33.565-62.889,40.584
		c-1.655,0.833-2.071,1.858-1.238,3.097l89.839,185.877c0.408,0.833,0.62,1.859,0.62,3.099c0,2.894-1.655,4.337-4.957,4.337h-48.948
		C1896.42,456.801,1894.154,455.358,1892.914,452.464z M1711.994,76.991V215.78c0,1.656,0.824,2.478,2.478,2.478h103.471
		c21.889,0,39.442-6.506,52.667-19.517c13.214-13.011,19.825-30.254,19.825-51.736c0-21.889-6.611-39.441-19.825-52.666
		c-13.225-13.214-30.778-19.826-52.667-19.826h-103.471C1712.817,74.513,1711.994,75.346,1711.994,76.991z"/>
	<path fill="#666666" d="M2032.317,450.605V29.282c0-4.124,2.062-6.195,6.195-6.195h149.941c42.955,0,77.237,11.258,102.854,33.768
		c25.606,22.517,38.415,52.567,38.415,90.15v185.877c0,37.592-12.809,67.642-38.415,90.15
		c-25.617,22.518-59.898,33.768-102.854,33.768h-149.941C2034.379,456.801,2032.317,454.739,2032.317,450.605z M2094.276,405.375
		h96.656c23.951,0,43.061-7.329,57.312-21.996c14.253-14.657,21.579-34.388,21.996-59.171V155.68
		c0-24.784-7.125-44.504-21.375-59.171c-14.25-14.658-33.564-21.996-57.932-21.996h-96.656c-1.655,0-2.479,0.833-2.479,2.478
		v325.905C2091.797,404.552,2092.621,405.375,2094.276,405.375z"/>
	<path fill="#666666" d="M2415.224,450.605V29.282c0-4.124,2.062-6.195,6.195-6.195h47.09c4.124,0,6.195,2.071,6.195,6.195v421.322
		c0,4.134-2.071,6.196-6.195,6.196h-47.09C2417.286,456.801,2415.224,454.739,2415.224,450.605z"/>
	<path fill="#666666" d="M2637.653,443.789c-23.138-12.392-41.108-29.837-53.905-52.356c-12.809-22.508-19.207-48.425-19.207-77.758
		V166.213c0-29.325,6.399-55.143,19.207-77.449c12.797-22.305,30.767-39.654,53.905-52.046
		c23.128-12.391,49.77-18.587,79.925-18.587c30.565,0,57.409,6.196,80.548,18.587c23.127,12.392,41.097,29.741,53.905,52.046
		c12.798,22.306,19.207,48.124,19.207,77.449v147.463c0,29.334-6.41,55.25-19.207,77.758
		c-12.808,22.518-30.778,39.964-53.905,52.356c-23.139,12.392-49.983,18.587-80.548,18.587
		C2687.423,462.377,2660.781,456.182,2637.653,443.789z M2785.734,384.929c17.349-17.349,26.022-40.274,26.022-68.775V165.592
		c0-28.907-8.673-52.142-26.022-69.704c-17.349-17.552-40.069-26.332-68.156-26.332c-28.093,0-50.709,8.781-67.843,26.332
		c-17.147,17.562-25.714,40.797-25.714,69.704v150.562c0,28.501,8.567,51.426,25.714,68.775
		c17.134,17.348,39.75,26.022,67.843,26.022C2745.665,410.951,2768.385,402.276,2785.734,384.929z"/>
	<path fill="#666666" d="M1095.333,1073.337L962.74,651.396l-0.62-2.478c0-2.885,1.858-4.337,5.575-4.337h50.189
		c3.717,0,6.195,1.654,7.435,4.956L1127.55,992.17c0.408,0.833,1.028,1.239,1.858,1.239c0.824,0,1.444-0.406,1.86-1.239
		L1233.5,649.536c1.24-3.301,3.506-4.956,6.815-4.956h48.948c4.54,0,6.197,2.275,4.957,6.815l-133.83,421.941
		c-1.24,3.311-3.719,4.957-7.435,4.957h-50.189C1099.049,1078.294,1096.571,1076.648,1095.333,1073.337z"/>
	<path fill="#666666" d="M1365.472,1072.098V650.775c0-4.124,2.062-6.195,6.195-6.195h47.09c4.124,0,6.195,2.071,6.195,6.195
		v421.322c0,4.134-2.071,6.196-6.195,6.196h-47.09C1367.534,1078.294,1365.472,1076.232,1365.472,1072.098z"/>
	<path fill="#666666" d="M1577.68,1068.38c-23.342-9.914-41.309-23.95-53.905-42.132c-12.605-18.172-18.897-39.441-18.897-63.818
		v-17.968c0-4.124,2.062-6.196,6.195-6.196h45.232c4.124,0,6.195,2.072,6.195,6.196v14.871c0,21.066,9.081,38.414,27.263,52.045
		c18.171,13.631,43.159,20.448,74.971,20.448c28.501,0,49.974-5.983,64.437-17.969c14.454-11.975,21.686-27.668,21.686-47.089
		c0-12.797-3.717-23.748-11.152-32.837c-7.435-9.081-18.279-17.445-32.53-25.094c-14.25-7.638-35.006-16.825-62.268-27.572
		c-30.157-11.559-54.011-22.092-71.562-31.598c-17.562-9.497-32.122-21.996-43.681-37.485
		c-11.57-15.491-17.349-35.007-17.349-58.552c0-35.52,12.702-63.401,38.104-83.645c25.404-20.233,59.79-30.359,103.161-30.359
		c30.563,0,57.409,5.169,80.548,15.49c23.128,10.33,40.99,24.783,53.595,43.371c12.594,18.587,18.897,40.07,18.897,64.437v12.392
		c0,4.134-2.073,6.196-6.197,6.196h-46.468c-4.135,0-6.197-2.062-6.197-6.196v-9.294c0-21.473-8.576-39.344-25.712-53.595
		c-17.145-14.25-40.795-21.376-70.944-21.376c-25.615,0-45.442,5.267-59.48,15.8c-14.047,10.533-21.066,25.713-21.066,45.54
		c0,13.631,3.504,24.784,10.532,33.458c7.019,8.674,17.446,16.42,31.289,23.235c13.836,6.816,35.008,15.597,63.509,26.332
		c29.325,11.569,53.072,22.208,71.254,31.909c18.171,9.71,33.243,22.518,45.23,38.414c11.976,15.906,17.967,35.627,17.967,59.171
		c0,36.352-13.32,65.163-39.963,86.433c-26.642,21.279-63.305,31.909-109.979,31.909
		C1628.582,1083.25,1601.011,1078.294,1577.68,1068.38z"/>
	<path fill="#666666" d="M1890.88,1072.098V650.775c0-4.124,2.062-6.195,6.195-6.195h47.09c4.124,0,6.195,2.071,6.195,6.195v421.322
		c0,4.134-2.071,6.196-6.195,6.196h-47.09C1892.943,1078.294,1890.88,1076.232,1890.88,1072.098z"/>
	<path fill="#666666" d="M2113.312,1065.282c-23.138-12.392-41.108-29.837-53.905-52.356
		c-12.809-22.508-19.207-48.424-19.207-77.758V787.706c0-29.325,6.399-55.143,19.207-77.449
		c12.797-22.305,30.767-39.654,53.905-52.046c23.128-12.391,49.77-18.587,79.925-18.587c30.565,0,57.409,6.196,80.548,18.587
		c23.127,12.392,41.097,29.741,53.905,52.046c12.798,22.306,19.207,48.124,19.207,77.449v147.463c0,29.334-6.41,55.25-19.207,77.758
		c-12.808,22.518-30.778,39.964-53.905,52.356c-23.139,12.392-49.983,18.587-80.548,18.587
		C2163.082,1083.87,2136.439,1077.675,2113.312,1065.282z M2261.393,1006.422c17.349-17.349,26.022-40.274,26.022-68.775V787.085
		c0-28.907-8.673-52.142-26.022-69.704c-17.349-17.552-40.069-26.332-68.156-26.332c-28.093,0-50.709,8.781-67.843,26.332
		c-17.147,17.562-25.714,40.797-25.714,69.704v150.562c0,28.501,8.567,51.426,25.714,68.775
		c17.134,17.348,39.75,26.022,67.843,26.022C2221.324,1032.444,2244.044,1023.769,2261.393,1006.422z"/>
	<path fill="#666666" d="M2698.82,644.58h47.088c4.124,0,6.195,2.071,6.195,6.195v421.322c0,4.134-2.071,6.196-6.195,6.196h-45.23
		c-2.895,0-5.373-1.443-7.435-4.337L2499.31,757.345c-0.416-1.239-1.034-1.752-1.858-1.549c-0.833,0.214-1.238,0.93-1.238,2.169
		l0.618,314.132c0,4.134-2.071,6.196-6.195,6.196h-47.09c-4.133,0-6.195-2.062-6.195-6.196V650.775c0-4.124,2.062-6.195,6.195-6.195
		h45.85c2.886,0,5.364,1.452,7.435,4.337l193.313,316.61c0.407,1.239,1.025,1.763,1.858,1.549c0.824-0.203,1.24-0.929,1.24-2.168
		l-0.62-314.133C2692.623,646.651,2694.685,644.58,2698.82,644.58z"/>
</g>
</svg>
